<mxfile host="65bd71144e">
    <diagram id="VbHgLgtObNh41P_mj9Rv" name="Page-1">
        <mxGraphModel dx="3261" dy="2873" grid="0" gridSize="10" guides="1" tooltips="1" connect="1" arrows="1" fold="1" page="1" pageScale="1" pageWidth="827" pageHeight="1169" background="#ffffff" math="0" shadow="0">
            <root>
                <mxCell id="0"/>
                <mxCell id="1" parent="0"/>
                <object placeholders="1" c4Name="Client" c4Type="Person" c4Description="Digital Wallet User" label="&lt;font style=&quot;font-size: 15px;&quot;&gt;&lt;b style=&quot;font-size: 15px;&quot;&gt;%c4Name%&lt;/b&gt;&lt;/font&gt;&lt;div style=&quot;font-size: 15px;&quot;&gt;[%c4Type%]&lt;/div&gt;&lt;br style=&quot;font-size: 15px;&quot;&gt;&lt;div style=&quot;font-size: 15px;&quot;&gt;&lt;font style=&quot;font-size: 15px;&quot;&gt;&lt;font color=&quot;#cccccc&quot; style=&quot;font-size: 15px;&quot;&gt;%c4Description%&lt;/font&gt;&lt;/font&gt;&lt;/div&gt;" id="2">
                    <mxCell style="html=1;fontSize=15;dashed=0;whiteSpace=wrap;fillColor=#083F75;strokeColor=#06315C;fontColor=#ffffff;shape=mxgraph.c4.person2;align=center;metaEdit=1;points=[[0.5,0,0],[1,0.5,0],[1,0.75,0],[0.75,1,0],[0.5,1,0],[0.25,1,0],[0,0.75,0],[0,0.5,0]];resizable=0;" vertex="1" parent="1">
                        <mxGeometry x="260" y="-184" width="200" height="180" as="geometry"/>
                    </mxCell>
                </object>
                <object placeholders="1" c4Name="SPA" c4Type="Container" c4Technology="React" c4Description="Digital Wallet Web App" label="&lt;font style=&quot;font-size: 15px;&quot;&gt;&lt;b style=&quot;font-size: 15px;&quot;&gt;%c4Name%&lt;/b&gt;&lt;/font&gt;&lt;div style=&quot;font-size: 15px;&quot;&gt;[%c4Type%: %c4Technology%]&lt;/div&gt;&lt;br style=&quot;font-size: 15px;&quot;&gt;&lt;div style=&quot;font-size: 15px;&quot;&gt;&lt;font style=&quot;font-size: 15px;&quot;&gt;&lt;font color=&quot;#E6E6E6&quot; style=&quot;font-size: 15px;&quot;&gt;%c4Description%&lt;/font&gt;&lt;/font&gt;&lt;/div&gt;" id="3">
                    <mxCell style="rounded=1;whiteSpace=wrap;html=1;fontSize=15;labelBackgroundColor=none;fillColor=#23A2D9;fontColor=#ffffff;align=center;arcSize=0;strokeColor=#0E7DAD;metaEdit=1;resizable=0;points=[[0.25,0,0],[0.5,0,0],[0.75,0,0],[1,0.25,0],[1,0.5,0],[1,0.75,0],[0.75,1,0],[0.5,1,0],[0.25,1,0],[0,0.75,0],[0,0.5,0],[0,0.25,0]];" vertex="1" parent="1">
                        <mxGeometry x="240" y="150" width="240" height="120" as="geometry"/>
                    </mxCell>
                </object>
                <object placeholders="1" c4Name="Wallet Core" c4Type="Container" c4Technology="TS" c4Description="Wallet Core é responsável pelas transações" label="&lt;font style=&quot;font-size: 15px;&quot;&gt;&lt;b style=&quot;font-size: 15px;&quot;&gt;%c4Name%&lt;/b&gt;&lt;/font&gt;&lt;div style=&quot;font-size: 15px;&quot;&gt;[%c4Type%: %c4Technology%]&lt;/div&gt;&lt;br style=&quot;font-size: 15px;&quot;&gt;&lt;div style=&quot;font-size: 15px;&quot;&gt;&lt;font style=&quot;font-size: 15px;&quot;&gt;&lt;font color=&quot;#E6E6E6&quot; style=&quot;font-size: 15px;&quot;&gt;%c4Description%&lt;/font&gt;&lt;/font&gt;&lt;/div&gt;" id="4">
                    <mxCell style="rounded=1;whiteSpace=wrap;html=1;fontSize=15;labelBackgroundColor=none;fillColor=#23A2D9;fontColor=#ffffff;align=center;arcSize=0;strokeColor=#0E7DAD;metaEdit=1;resizable=0;points=[[0.25,0,0],[0.5,0,0],[0.75,0,0],[1,0.25,0],[1,0.5,0],[1,0.75,0],[0.75,1,0],[0.5,1,0],[0.25,1,0],[0,0.75,0],[0,0.5,0],[0,0.25,0]];" vertex="1" parent="1">
                        <mxGeometry x="450" y="370" width="240" height="120" as="geometry"/>
                    </mxCell>
                </object>
                <object placeholders="1" c4Type="Relationship" c4Technology="HTTPS" c4Description="Uses" label="&lt;div style=&quot;text-align: left; font-size: 15px;&quot;&gt;&lt;div style=&quot;text-align: center; font-size: 15px;&quot;&gt;&lt;b style=&quot;font-size: 15px;&quot;&gt;%c4Description%&lt;/b&gt;&lt;/div&gt;&lt;div style=&quot;text-align: center; font-size: 15px;&quot;&gt;[%c4Technology%]&lt;/div&gt;&lt;/div&gt;" id="8">
                    <mxCell style="endArrow=blockThin;html=1;fontSize=15;fontColor=#404040;strokeWidth=1;endFill=1;strokeColor=#828282;elbow=vertical;metaEdit=1;endSize=14;startSize=14;jumpStyle=arc;jumpSize=16;rounded=0;exitX=0.5;exitY=1;exitDx=0;exitDy=0;exitPerimeter=0;entryX=0.5;entryY=0;entryDx=0;entryDy=0;entryPerimeter=0;labelBackgroundColor=none;" edge="1" parent="1" source="2" target="3">
                        <mxGeometry x="-0.6923" width="240" relative="1" as="geometry">
                            <mxPoint x="390" y="560" as="sourcePoint"/>
                            <mxPoint x="630" y="560" as="targetPoint"/>
                            <mxPoint as="offset"/>
                        </mxGeometry>
                    </mxCell>
                </object>
                <object placeholders="1" c4Name="Payment ACL" c4Type="Container" c4Technology="TS" c4Description="Camada anticorrupção para o Payment Gateway" label="&lt;font style=&quot;font-size: 15px;&quot;&gt;&lt;b style=&quot;font-size: 15px;&quot;&gt;%c4Name%&lt;/b&gt;&lt;/font&gt;&lt;div style=&quot;font-size: 15px;&quot;&gt;[%c4Type%: %c4Technology%]&lt;/div&gt;&lt;br style=&quot;font-size: 15px;&quot;&gt;&lt;div style=&quot;font-size: 15px;&quot;&gt;&lt;font style=&quot;font-size: 15px;&quot;&gt;&lt;font color=&quot;#E6E6E6&quot; style=&quot;font-size: 15px;&quot;&gt;%c4Description%&lt;/font&gt;&lt;/font&gt;&lt;/div&gt;" id="10">
                    <mxCell style="rounded=1;whiteSpace=wrap;html=1;fontSize=15;labelBackgroundColor=none;fillColor=#23A2D9;fontColor=#ffffff;align=center;arcSize=0;strokeColor=#0E7DAD;metaEdit=1;resizable=0;points=[[0.25,0,0],[0.5,0,0],[0.75,0,0],[1,0.25,0],[1,0.5,0],[1,0.75,0],[0.75,1,0],[0.5,1,0],[0.25,1,0],[0,0.75,0],[0,0.5,0],[0,0.25,0]];" vertex="1" parent="1">
                        <mxGeometry x="750" y="610" width="240" height="120" as="geometry"/>
                    </mxCell>
                </object>
                <object placeholders="1" c4Name="Statement Microservice" c4Type="Container" c4Technology="TS" c4Description="Retorna o 'statement' do cliente" label="&lt;font style=&quot;font-size: 15px;&quot;&gt;&lt;b style=&quot;font-size: 15px;&quot;&gt;%c4Name%&lt;/b&gt;&lt;/font&gt;&lt;div style=&quot;font-size: 15px;&quot;&gt;[%c4Type%: %c4Technology%]&lt;/div&gt;&lt;br style=&quot;font-size: 15px;&quot;&gt;&lt;div style=&quot;font-size: 15px;&quot;&gt;&lt;font style=&quot;font-size: 15px;&quot;&gt;&lt;font color=&quot;#E6E6E6&quot; style=&quot;font-size: 15px;&quot;&gt;%c4Description%&lt;/font&gt;&lt;/font&gt;&lt;/div&gt;" id="11">
                    <mxCell style="rounded=1;whiteSpace=wrap;html=1;fontSize=15;labelBackgroundColor=none;fillColor=#23A2D9;fontColor=#ffffff;align=center;arcSize=0;strokeColor=#0E7DAD;metaEdit=1;resizable=0;points=[[0.25,0,0],[0.5,0,0],[0.75,0,0],[1,0.25,0],[1,0.5,0],[1,0.75,0],[0.75,1,0],[0.5,1,0],[0.25,1,0],[0,0.75,0],[0,0.5,0],[0,0.25,0]];" vertex="1" parent="1">
                        <mxGeometry x="170" y="610" width="240" height="120" as="geometry"/>
                    </mxCell>
                </object>
                <object placeholders="1" c4Name="Balance Microservice" c4Type="Container" c4Technology="TS" c4Description="Retorna o 'balance' do cliente" label="&lt;font style=&quot;font-size: 15px;&quot;&gt;&lt;b style=&quot;font-size: 15px;&quot;&gt;%c4Name%&lt;/b&gt;&lt;/font&gt;&lt;div style=&quot;font-size: 15px;&quot;&gt;[%c4Type%: %c4Technology%]&lt;/div&gt;&lt;br style=&quot;font-size: 15px;&quot;&gt;&lt;div style=&quot;font-size: 15px;&quot;&gt;&lt;font style=&quot;font-size: 15px;&quot;&gt;&lt;font color=&quot;#E6E6E6&quot; style=&quot;font-size: 15px;&quot;&gt;%c4Description%&lt;/font&gt;&lt;/font&gt;&lt;/div&gt;" id="12">
                    <mxCell style="rounded=1;whiteSpace=wrap;html=1;fontSize=15;labelBackgroundColor=none;fillColor=#23A2D9;fontColor=#ffffff;align=center;arcSize=0;strokeColor=#0E7DAD;metaEdit=1;resizable=0;points=[[0.25,0,0],[0.5,0,0],[0.75,0,0],[1,0.25,0],[1,0.5,0],[1,0.75,0],[0.75,1,0],[0.5,1,0],[0.25,1,0],[0,0.75,0],[0,0.5,0],[0,0.25,0]];verticalAlign=middle;" vertex="1" parent="1">
                        <mxGeometry x="-150" y="610" width="240" height="120" as="geometry"/>
                    </mxCell>
                </object>
                <object placeholders="1" c4Type="Wallet DB" c4Container="Container" c4Technology="MySQL" c4Description="" label="&lt;font style=&quot;font-size: 15px;&quot;&gt;&lt;b style=&quot;font-size: 15px;&quot;&gt;%c4Type%&lt;/b&gt;&lt;/font&gt;&lt;div style=&quot;font-size: 15px;&quot;&gt;[%c4Container%:&amp;nbsp;%c4Technology%]&lt;/div&gt;&lt;br style=&quot;font-size: 15px;&quot;&gt;&lt;div style=&quot;font-size: 15px;&quot;&gt;&lt;font style=&quot;font-size: 15px;&quot;&gt;&lt;font color=&quot;#E6E6E6&quot; style=&quot;font-size: 15px;&quot;&gt;%c4Description%&lt;/font&gt;&lt;/font&gt;&lt;/div&gt;" id="13">
                    <mxCell style="shape=cylinder3;size=15;whiteSpace=wrap;html=1;boundedLbl=1;rounded=0;labelBackgroundColor=none;fillColor=#23A2D9;fontSize=15;fontColor=#ffffff;align=center;strokeColor=#0E7DAD;metaEdit=1;points=[[0.5,0,0],[1,0.25,0],[1,0.5,0],[1,0.75,0],[0.5,1,0],[0,0.75,0],[0,0.5,0],[0,0.25,0]];resizable=0;" vertex="1" parent="1">
                        <mxGeometry x="460" y="610" width="240" height="120" as="geometry"/>
                    </mxCell>
                </object>
                <object placeholders="1" c4Type="Balance DB" c4Container="Container" c4Technology="MySQL" c4Description="" label="&lt;font style=&quot;font-size: 15px;&quot;&gt;&lt;b style=&quot;font-size: 15px;&quot;&gt;%c4Type%&lt;/b&gt;&lt;/font&gt;&lt;div style=&quot;font-size: 15px;&quot;&gt;[%c4Container%:&amp;nbsp;%c4Technology%]&lt;/div&gt;&lt;br style=&quot;font-size: 15px;&quot;&gt;&lt;div style=&quot;font-size: 15px;&quot;&gt;&lt;font style=&quot;font-size: 15px;&quot;&gt;&lt;font color=&quot;#E6E6E6&quot; style=&quot;font-size: 15px;&quot;&gt;%c4Description%&lt;/font&gt;&lt;/font&gt;&lt;/div&gt;" id="14">
                    <mxCell style="shape=cylinder3;size=15;whiteSpace=wrap;html=1;boundedLbl=1;rounded=0;labelBackgroundColor=none;fillColor=#23A2D9;fontSize=15;fontColor=#ffffff;align=center;strokeColor=#0E7DAD;metaEdit=1;points=[[0.5,0,0],[1,0.25,0],[1,0.5,0],[1,0.75,0],[0.5,1,0],[0,0.75,0],[0,0.5,0],[0,0.25,0]];resizable=0;" vertex="1" parent="1">
                        <mxGeometry x="-150" y="860" width="240" height="120" as="geometry"/>
                    </mxCell>
                </object>
                <object placeholders="1" c4Type="Payment ACL DB" c4Container="Container" c4Technology="MySQL" c4Description="" label="&lt;font style=&quot;font-size: 15px;&quot;&gt;&lt;b style=&quot;font-size: 15px;&quot;&gt;%c4Type%&lt;/b&gt;&lt;/font&gt;&lt;div style=&quot;font-size: 15px;&quot;&gt;[%c4Container%:&amp;nbsp;%c4Technology%]&lt;/div&gt;&lt;br style=&quot;font-size: 15px;&quot;&gt;&lt;div style=&quot;font-size: 15px;&quot;&gt;&lt;font style=&quot;font-size: 15px;&quot;&gt;&lt;font color=&quot;#E6E6E6&quot; style=&quot;font-size: 15px;&quot;&gt;%c4Description%&lt;/font&gt;&lt;/font&gt;&lt;/div&gt;" id="15">
                    <mxCell style="shape=cylinder3;size=15;whiteSpace=wrap;html=1;boundedLbl=1;rounded=0;labelBackgroundColor=none;fillColor=#23A2D9;fontSize=15;fontColor=#ffffff;align=center;strokeColor=#0E7DAD;metaEdit=1;points=[[0.5,0,0],[1,0.25,0],[1,0.5,0],[1,0.75,0],[0.5,1,0],[0,0.75,0],[0,0.5,0],[0,0.25,0]];resizable=0;" vertex="1" parent="1">
                        <mxGeometry x="780" y="860" width="240" height="120" as="geometry"/>
                    </mxCell>
                </object>
                <object placeholders="1" c4Type="Statement DB" c4Container="Container" c4Technology="MySQL" c4Description="" label="&lt;font style=&quot;font-size: 15px;&quot;&gt;&lt;b style=&quot;font-size: 15px;&quot;&gt;%c4Type%&lt;/b&gt;&lt;/font&gt;&lt;div style=&quot;font-size: 15px;&quot;&gt;[%c4Container%:&amp;nbsp;%c4Technology%]&lt;/div&gt;&lt;br style=&quot;font-size: 15px;&quot;&gt;&lt;div style=&quot;font-size: 15px;&quot;&gt;&lt;font style=&quot;font-size: 15px;&quot;&gt;&lt;font color=&quot;#E6E6E6&quot; style=&quot;font-size: 15px;&quot;&gt;%c4Description%&lt;/font&gt;&lt;/font&gt;&lt;/div&gt;" id="16">
                    <mxCell style="shape=cylinder3;size=15;whiteSpace=wrap;html=1;boundedLbl=1;rounded=0;labelBackgroundColor=none;fillColor=#23A2D9;fontSize=15;fontColor=#ffffff;align=center;strokeColor=#0E7DAD;metaEdit=1;points=[[0.5,0,0],[1,0.25,0],[1,0.5,0],[1,0.75,0],[0.5,1,0],[0,0.75,0],[0,0.5,0],[0,0.25,0]];resizable=0;" vertex="1" parent="1">
                        <mxGeometry x="170" y="860" width="240" height="120" as="geometry"/>
                    </mxCell>
                </object>
                <object placeholders="1" c4Name="Payment Gateway" c4Type="External System" c4Description="Processador de pagamento" label="&lt;font style=&quot;font-size: 15px;&quot;&gt;&lt;b style=&quot;font-size: 15px;&quot;&gt;%c4Name%&lt;/b&gt;&lt;/font&gt;&lt;div style=&quot;font-size: 15px;&quot;&gt;[%c4Type%]&lt;/div&gt;&lt;br style=&quot;font-size: 15px;&quot;&gt;&lt;div style=&quot;font-size: 15px;&quot;&gt;&lt;font style=&quot;font-size: 15px;&quot;&gt;&lt;font color=&quot;#cccccc&quot; style=&quot;font-size: 15px;&quot;&gt;%c4Description%&lt;/font&gt;&lt;/font&gt;&lt;/div&gt;" id="17">
                    <mxCell style="rounded=1;whiteSpace=wrap;html=1;labelBackgroundColor=none;fillColor=#8C8496;fontColor=#ffffff;align=center;arcSize=0;strokeColor=#736782;metaEdit=1;resizable=0;points=[[0.25,0,0],[0.5,0,0],[0.75,0,0],[1,0.25,0],[1,0.5,0],[1,0.75,0],[0.75,1,0],[0.5,1,0],[0.25,1,0],[0,0.75,0],[0,0.5,0],[0,0.25,0]];fontSize=15;" vertex="1" parent="1">
                        <mxGeometry x="1120" y="810" width="240" height="120" as="geometry"/>
                    </mxCell>
                </object>
                <object placeholders="1" c4Type="Relationship" c4Technology="JSON/HTTP" c4Description="Uses" label="&lt;div style=&quot;text-align: left; font-size: 15px;&quot;&gt;&lt;div style=&quot;text-align: center; font-size: 15px;&quot;&gt;&lt;b style=&quot;font-size: 15px;&quot;&gt;%c4Description%&lt;/b&gt;&lt;/div&gt;&lt;div style=&quot;text-align: center; font-size: 15px;&quot;&gt;[%c4Technology%]&lt;/div&gt;&lt;/div&gt;" id="18">
                    <mxCell style="endArrow=blockThin;html=1;fontSize=15;fontColor=#404040;strokeWidth=1;endFill=1;strokeColor=#828282;elbow=vertical;metaEdit=1;endSize=14;startSize=14;jumpStyle=arc;jumpSize=16;rounded=0;exitX=1;exitY=0.75;exitDx=0;exitDy=0;exitPerimeter=0;entryX=0.5;entryY=0;entryDx=0;entryDy=0;entryPerimeter=0;labelBackgroundColor=none;" edge="1" parent="1" source="10" target="17">
                        <mxGeometry x="-0.15" y="-20" width="240" relative="1" as="geometry">
                            <mxPoint x="800" y="760" as="sourcePoint"/>
                            <mxPoint x="970" y="910" as="targetPoint"/>
                            <mxPoint as="offset"/>
                        </mxGeometry>
                    </mxCell>
                </object>
                <object placeholders="1" c4Type="Relationship" c4Technology="MySQL Driver" c4Description="Uses" label="&lt;div style=&quot;text-align: left; font-size: 15px;&quot;&gt;&lt;div style=&quot;text-align: center; font-size: 15px;&quot;&gt;&lt;b style=&quot;font-size: 15px;&quot;&gt;%c4Description%&lt;/b&gt;&lt;/div&gt;&lt;div style=&quot;text-align: center; font-size: 15px;&quot;&gt;[%c4Technology%]&lt;/div&gt;&lt;/div&gt;" id="20">
                    <mxCell style="endArrow=blockThin;html=1;fontSize=15;fontColor=#404040;strokeWidth=1;endFill=1;strokeColor=#828282;elbow=vertical;metaEdit=1;endSize=14;startSize=14;jumpStyle=arc;jumpSize=16;rounded=0;exitX=0.5;exitY=1;exitDx=0;exitDy=0;exitPerimeter=0;entryX=0.5;entryY=0;entryDx=0;entryDy=0;entryPerimeter=0;labelBackgroundColor=none;" edge="1" parent="1" source="10" target="15">
                        <mxGeometry width="240" relative="1" as="geometry">
                            <mxPoint x="840" y="730" as="sourcePoint"/>
                            <mxPoint x="760" y="840" as="targetPoint"/>
                        </mxGeometry>
                    </mxCell>
                </object>
                <object placeholders="1" c4Type="Relationship" c4Technology="MySQL Driver" c4Description="Uses" label="&lt;div style=&quot;text-align: left; font-size: 15px;&quot;&gt;&lt;div style=&quot;text-align: center; font-size: 15px;&quot;&gt;&lt;b style=&quot;font-size: 15px;&quot;&gt;%c4Description%&lt;/b&gt;&lt;/div&gt;&lt;div style=&quot;text-align: center; font-size: 15px;&quot;&gt;[%c4Technology%]&lt;/div&gt;&lt;/div&gt;" id="22">
                    <mxCell style="endArrow=blockThin;html=1;fontSize=15;fontColor=#404040;strokeWidth=1;endFill=1;strokeColor=#828282;elbow=vertical;metaEdit=1;endSize=14;startSize=14;jumpStyle=arc;jumpSize=16;rounded=0;exitX=0.5;exitY=1;exitDx=0;exitDy=0;exitPerimeter=0;entryX=0.5;entryY=0;entryDx=0;entryDy=0;entryPerimeter=0;labelBackgroundColor=none;" edge="1" parent="1" source="11" target="16">
                        <mxGeometry width="240" relative="1" as="geometry">
                            <mxPoint x="439.99999999999955" y="740" as="sourcePoint"/>
                            <mxPoint x="359.99999999999955" y="850" as="targetPoint"/>
                        </mxGeometry>
                    </mxCell>
                </object>
                <object placeholders="1" c4Type="Relationship" c4Technology="MySQL Driver" c4Description="Uses" label="&lt;div style=&quot;text-align: left; font-size: 15px;&quot;&gt;&lt;div style=&quot;text-align: center; font-size: 15px;&quot;&gt;&lt;b style=&quot;font-size: 15px;&quot;&gt;%c4Description%&lt;/b&gt;&lt;/div&gt;&lt;div style=&quot;text-align: center; font-size: 15px;&quot;&gt;[%c4Technology%]&lt;/div&gt;&lt;/div&gt;" id="24">
                    <mxCell style="endArrow=blockThin;html=1;fontSize=15;fontColor=#404040;strokeWidth=1;endFill=1;strokeColor=#828282;elbow=vertical;metaEdit=1;endSize=14;startSize=14;jumpStyle=arc;jumpSize=16;rounded=0;exitX=0.5;exitY=1;exitDx=0;exitDy=0;exitPerimeter=0;entryX=0.5;entryY=0;entryDx=0;entryDy=0;entryPerimeter=0;labelBackgroundColor=none;" edge="1" parent="1" source="12" target="14">
                        <mxGeometry width="240" relative="1" as="geometry">
                            <mxPoint x="139.99999999999955" y="620" as="sourcePoint"/>
                            <mxPoint x="59.999999999999545" y="730" as="targetPoint"/>
                        </mxGeometry>
                    </mxCell>
                </object>
                <object placeholders="1" c4Type="Relationship" c4Technology="MySQL Driver" c4Description="Uses" label="&lt;div style=&quot;text-align: left; font-size: 15px;&quot;&gt;&lt;div style=&quot;text-align: center; font-size: 15px;&quot;&gt;&lt;b style=&quot;font-size: 15px;&quot;&gt;%c4Description%&lt;/b&gt;&lt;/div&gt;&lt;div style=&quot;text-align: center; font-size: 15px;&quot;&gt;[%c4Technology%]&lt;/div&gt;&lt;/div&gt;" id="25">
                    <mxCell style="endArrow=blockThin;html=1;fontSize=15;fontColor=#404040;strokeWidth=1;endFill=1;strokeColor=#828282;elbow=vertical;metaEdit=1;endSize=14;startSize=14;jumpStyle=arc;jumpSize=16;rounded=0;exitX=0.5;exitY=1;exitDx=0;exitDy=0;exitPerimeter=0;entryX=0.5;entryY=0;entryDx=0;entryDy=0;entryPerimeter=0;labelBackgroundColor=none;" edge="1" parent="1" source="4" target="13">
                        <mxGeometry width="240" relative="1" as="geometry">
                            <mxPoint x="619.9999999999995" y="520" as="sourcePoint"/>
                            <mxPoint x="539.9999999999995" y="630" as="targetPoint"/>
                        </mxGeometry>
                    </mxCell>
                </object>
                <object placeholders="1" c4Type="Relationship" c4Technology="JSON/HTTPS" c4Description="Uses" label="&lt;div style=&quot;text-align: left; font-size: 15px;&quot;&gt;&lt;div style=&quot;text-align: center; font-size: 15px;&quot;&gt;&lt;b style=&quot;font-size: 15px;&quot;&gt;%c4Description%&lt;/b&gt;&lt;/div&gt;&lt;div style=&quot;text-align: center; font-size: 15px;&quot;&gt;[%c4Technology%]&lt;/div&gt;&lt;/div&gt;" id="26">
                    <mxCell style="endArrow=blockThin;html=1;fontSize=15;fontColor=#404040;strokeWidth=1;endFill=1;strokeColor=#828282;elbow=vertical;metaEdit=1;endSize=14;startSize=14;jumpStyle=arc;jumpSize=16;rounded=0;exitX=0.75;exitY=1;exitDx=0;exitDy=0;exitPerimeter=0;entryX=0.5;entryY=0;entryDx=0;entryDy=0;entryPerimeter=0;labelBackgroundColor=none;" edge="1" parent="1" source="4" target="10">
                        <mxGeometry width="240" relative="1" as="geometry">
                            <mxPoint x="580.0000000000005" y="500" as="sourcePoint"/>
                            <mxPoint x="590.0000000000005" y="650" as="targetPoint"/>
                        </mxGeometry>
                    </mxCell>
                </object>
                <object placeholders="1" c4Type="Relationship" c4Technology="JSON/HTTPS" c4Description="Uses" label="&lt;div style=&quot;text-align: left; font-size: 15px;&quot;&gt;&lt;div style=&quot;text-align: center; font-size: 15px;&quot;&gt;&lt;b style=&quot;font-size: 15px;&quot;&gt;%c4Description%&lt;/b&gt;&lt;/div&gt;&lt;div style=&quot;text-align: center; font-size: 15px;&quot;&gt;[%c4Technology%]&lt;/div&gt;&lt;/div&gt;" id="27">
                    <mxCell style="endArrow=blockThin;html=1;fontSize=15;fontColor=#404040;strokeWidth=1;endFill=1;strokeColor=#828282;elbow=vertical;metaEdit=1;endSize=14;startSize=14;jumpStyle=arc;jumpSize=16;rounded=0;exitX=0.5;exitY=1;exitDx=0;exitDy=0;exitPerimeter=0;entryX=0.5;entryY=0;entryDx=0;entryDy=0;entryPerimeter=0;labelBackgroundColor=none;" edge="1" parent="1" source="3" target="11">
                        <mxGeometry width="240" relative="1" as="geometry">
                            <mxPoint x="230" y="410" as="sourcePoint"/>
                            <mxPoint x="360" y="560" as="targetPoint"/>
                        </mxGeometry>
                    </mxCell>
                </object>
                <object placeholders="1" c4Type="Relationship" c4Technology="JSON/HTTPS" c4Description="Uses" label="&lt;div style=&quot;text-align: left; font-size: 15px;&quot;&gt;&lt;div style=&quot;text-align: center; font-size: 15px;&quot;&gt;&lt;b style=&quot;font-size: 15px;&quot;&gt;%c4Description%&lt;/b&gt;&lt;/div&gt;&lt;div style=&quot;text-align: center; font-size: 15px;&quot;&gt;[%c4Technology%]&lt;/div&gt;&lt;/div&gt;" id="28">
                    <mxCell style="endArrow=blockThin;html=1;fontSize=15;fontColor=#404040;strokeWidth=1;endFill=1;strokeColor=#828282;elbow=vertical;metaEdit=1;endSize=14;startSize=14;jumpStyle=arc;jumpSize=16;rounded=0;entryX=0.5;entryY=0;entryDx=0;entryDy=0;entryPerimeter=0;labelBackgroundColor=none;" edge="1" parent="1" source="3" target="12">
                        <mxGeometry width="240" relative="1" as="geometry">
                            <mxPoint x="-90" y="380" as="sourcePoint"/>
                            <mxPoint x="40" y="530" as="targetPoint"/>
                        </mxGeometry>
                    </mxCell>
                </object>
                <object placeholders="1" c4Type="Relationship" c4Technology="Topic" c4Description="Uses" label="&lt;div style=&quot;text-align: left; font-size: 15px;&quot;&gt;&lt;div style=&quot;text-align: center; font-size: 15px;&quot;&gt;&lt;b style=&quot;font-size: 15px;&quot;&gt;%c4Description%&lt;/b&gt;&lt;/div&gt;&lt;div style=&quot;text-align: center; font-size: 15px;&quot;&gt;[%c4Technology%]&lt;/div&gt;&lt;/div&gt;" id="29">
                    <mxCell style="endArrow=blockThin;html=1;fontSize=15;fontColor=#404040;strokeWidth=1;endFill=1;strokeColor=#828282;elbow=vertical;metaEdit=1;endSize=14;startSize=14;jumpStyle=arc;jumpSize=16;rounded=0;dashed=1;dashPattern=8 8;exitX=0;exitY=0.75;exitDx=0;exitDy=0;exitPerimeter=0;entryX=0.75;entryY=0;entryDx=0;entryDy=0;entryPerimeter=0;labelBackgroundColor=none;" edge="1" parent="1" source="4" target="12">
                        <mxGeometry x="0.1782" y="-7" width="240" relative="1" as="geometry">
                            <mxPoint x="-50" y="410" as="sourcePoint"/>
                            <mxPoint x="80" y="560" as="targetPoint"/>
                            <mxPoint y="1" as="offset"/>
                        </mxGeometry>
                    </mxCell>
                </object>
                <object placeholders="1" c4Type="Relationship" c4Technology="Topic" c4Description="Uses" label="&lt;div style=&quot;text-align: left; font-size: 15px;&quot;&gt;&lt;div style=&quot;text-align: center; font-size: 15px;&quot;&gt;&lt;b style=&quot;font-size: 15px;&quot;&gt;%c4Description%&lt;/b&gt;&lt;/div&gt;&lt;div style=&quot;text-align: center; font-size: 15px;&quot;&gt;[%c4Technology%]&lt;/div&gt;&lt;/div&gt;" id="30">
                    <mxCell style="endArrow=blockThin;html=1;fontSize=15;fontColor=#404040;strokeWidth=1;endFill=1;strokeColor=#828282;elbow=vertical;metaEdit=1;endSize=14;startSize=14;jumpStyle=arc;jumpSize=16;rounded=0;dashed=1;dashPattern=8 8;exitX=0.25;exitY=1;exitDx=0;exitDy=0;exitPerimeter=0;entryX=0.75;entryY=0;entryDx=0;entryDy=0;entryPerimeter=0;labelBackgroundColor=none;" edge="1" parent="1" source="4" target="11">
                        <mxGeometry x="-0.2642" y="8" width="240" relative="1" as="geometry">
                            <mxPoint x="180" y="460" as="sourcePoint"/>
                            <mxPoint x="310" y="610" as="targetPoint"/>
                            <mxPoint as="offset"/>
                        </mxGeometry>
                    </mxCell>
                </object>
                <object placeholders="1" c4Type="Relationship" c4Technology="JSON/HTTPS" c4Description="Uses" label="&lt;div style=&quot;text-align: left; font-size: 15px;&quot;&gt;&lt;div style=&quot;text-align: center; font-size: 15px;&quot;&gt;&lt;b style=&quot;font-size: 15px;&quot;&gt;%c4Description%&lt;/b&gt;&lt;/div&gt;&lt;div style=&quot;text-align: center; font-size: 15px;&quot;&gt;[%c4Technology%]&lt;/div&gt;&lt;/div&gt;" id="31">
                    <mxCell style="endArrow=blockThin;html=1;fontSize=15;fontColor=#404040;strokeWidth=1;endFill=1;strokeColor=#828282;elbow=vertical;metaEdit=1;endSize=14;startSize=14;jumpStyle=arc;jumpSize=16;rounded=0;exitX=0.75;exitY=1;exitDx=0;exitDy=0;exitPerimeter=0;entryX=0.5;entryY=0;entryDx=0;entryDy=0;entryPerimeter=0;labelBackgroundColor=none;" edge="1" parent="1" source="3" target="4">
                        <mxGeometry width="240" relative="1" as="geometry">
                            <mxPoint x="670" y="310" as="sourcePoint"/>
                            <mxPoint x="950" y="470" as="targetPoint"/>
                        </mxGeometry>
                    </mxCell>
                </object>
                <object placeholders="1" c4Name="Digital Wallet" c4Type="SystemScopeBoundary" c4Application="System" label="&lt;font style=&quot;font-size: 15px;&quot;&gt;&lt;b style=&quot;font-size: 15px;&quot;&gt;&lt;div style=&quot;font-size: 15px;&quot;&gt;%c4Name%&lt;/div&gt;&lt;/b&gt;&lt;/font&gt;&lt;div style=&quot;font-size: 15px;&quot;&gt;[%c4Application%]&lt;/div&gt;" id="33">
                    <mxCell style="rounded=1;fontSize=15;whiteSpace=wrap;html=1;dashed=1;arcSize=20;fillColor=none;strokeColor=#666666;fontColor=#333333;labelBackgroundColor=none;align=center;verticalAlign=top;labelBorderColor=none;spacingTop=0;spacing=10;dashPattern=8 4;metaEdit=1;rotatable=0;perimeter=rectanglePerimeter;noLabel=0;labelPadding=0;allowArrows=0;connectable=0;expand=0;recursiveResize=0;editable=1;pointerEvents=0;absoluteArcSize=1;points=[[0.25,0,0],[0.5,0,0],[0.75,0,0],[1,0.25,0],[1,0.5,0],[1,0.75,0],[0.75,1,0],[0.5,1,0],[0.25,1,0],[0,0.75,0],[0,0.5,0],[0,0.25,0]];" vertex="1" parent="1">
                        <mxGeometry x="-190" y="67" width="1233" height="993" as="geometry"/>
                    </mxCell>
                </object>
                <mxCell id="61" value="" style="rounded=0;whiteSpace=wrap;html=1;labelBackgroundColor=#FFFFFF;strokeWidth=8;fontSize=15;labelBorderColor=default;fillColor=#FFFFFF;fontColor=#ffffff;strokeColor=#fff;" vertex="1" parent="1">
                    <mxGeometry x="-396" y="507" width="173" height="137.5" as="geometry"/>
                </mxCell>
                <mxCell id="62" value="" style="rounded=0;whiteSpace=wrap;html=1;labelBackgroundColor=#FFFFFF;strokeWidth=8;fontSize=15;labelBorderColor=default;fillColor=#FFFFFF;fontColor=#ffffff;strokeColor=#fff;" vertex="1" parent="1">
                    <mxGeometry x="361" y="1089" width="173" height="137.5" as="geometry"/>
                </mxCell>
                <mxCell id="63" value="" style="rounded=0;whiteSpace=wrap;html=1;labelBackgroundColor=#FFFFFF;strokeWidth=8;fontSize=15;labelBorderColor=default;fillColor=#FFFFFF;fontColor=#ffffff;strokeColor=#fff;" vertex="1" parent="1">
                    <mxGeometry x="1237" y="425" width="173" height="137.5" as="geometry"/>
                </mxCell>
                <mxCell id="64" value="" style="rounded=0;whiteSpace=wrap;html=1;labelBackgroundColor=#FFFFFF;strokeWidth=8;fontSize=15;labelBorderColor=default;fillColor=#FFFFFF;fontColor=#ffffff;strokeColor=#fff;" vertex="1" parent="1">
                    <mxGeometry x="277" y="-249" width="173" height="41.5" as="geometry"/>
                </mxCell>
            </root>
        </mxGraphModel>
    </diagram>
</mxfile>